<svg width="25" height="25" viewBox="0 0 25 25" fill="none" xmlns="http://www.w3.org/2000/svg">
<path d="M18.3333 5.83334H19.9999M7.49992 0.833344H17.4999C21.1818 0.833344 24.1666 3.81811 24.1666 7.50001V17.5C24.1666 21.1819 21.1818 24.1667 17.4999 24.1667H7.49992C3.81802 24.1667 0.833252 21.1819 0.833252 17.5V7.50001C0.833252 3.81811 3.81802 0.833344 7.49992 0.833344ZM12.4999 17.5C9.73849 17.5 7.49992 15.2614 7.49992 12.5C7.49992 9.73859 9.73849 7.50001 12.4999 7.50001C15.2613 7.50001 17.4999 9.73859 17.4999 12.5C17.4999 15.2614 15.2613 17.5 12.4999 17.5Z" stroke="black"/>
</svg>
