<svg width="232" height="134" viewBox="0 0 232 134" fill="none" xmlns="http://www.w3.org/2000/svg">
<path d="M62.8176 49.2909C62.5234 49.2909 57.0801 61.7234 56.6388 62.8935C55.3147 66.2576 55.1676 69.9142 53.5494 73.2782C52.6667 74.8871 51.784 76.3498 51.0484 78.1049C50.4599 79.275 49.5773 80.1526 48.6946 81.0302C46.635 82.9316 44.4282 84.248 41.4859 84.3943C41.3388 84.3943 41.1917 84.3943 41.0446 84.5405C39.2792 85.2719 37.5138 85.2719 35.7485 84.5405C35.4542 84.3943 35.16 84.248 34.7187 84.248C32.0706 83.663 30.3052 82.2003 28.9812 80.0064C27.51 77.3736 26.3331 74.7409 25.3033 71.9619C23.5379 67.5739 22.361 63.0398 21.037 58.5056C20.1543 55.434 18.536 52.8013 16.0351 50.7536C15.0053 49.876 13.9755 49.4372 12.6514 48.8521C12.5043 49.1447 12.3572 49.2909 12.3572 49.4372C12.063 51.4849 11.6216 53.5326 11.3274 55.5803C11.1803 56.8967 10.8861 58.0668 10.4447 59.2369C9.12069 62.601 9.12069 67.2814 8.97357 70.938C8.82646 74.4483 8.38511 77.9587 8.09088 81.469C8.09088 82.3466 7.94377 83.2242 7.94377 84.1018C7.79665 85.5644 7.64954 87.1733 7.50242 88.6359C7.50242 89.221 7.20819 89.3673 6.91397 89.6598C6.61974 89.806 6.32551 89.806 6.17839 89.3673C6.03128 89.0747 5.88416 88.7822 5.58993 88.4897C5.44282 89.3673 4.41301 89.0747 4.2659 89.9523C2.94187 89.0747 1.91206 88.0509 1.61783 86.5882C0.293801 80.2989 0.293801 73.4245 0.440915 66.9889C0.58803 54.849 -0.441773 42.4165 0.88226 30.4229C1.17649 27.3514 1.76495 24.2798 2.20629 21.062C2.35341 19.3068 2.50052 17.5517 2.79475 15.7965C2.94187 13.7488 3.82455 11.8474 4.56013 9.94595C4.85436 9.06837 5.14859 9.06837 6.03128 9.21463C7.50242 9.50716 8.67934 10.531 9.56203 11.8474C9.85626 12.2862 10.0034 13.4563 10.2976 14.6264C10.5918 16.089 11.0332 17.6979 11.3274 19.1606C11.4745 19.7456 11.4745 20.1844 11.6216 20.7695C11.7688 21.3545 11.9159 21.7933 12.063 22.2321C12.2101 22.3784 12.2101 22.3784 12.3572 22.3784C12.3572 22.2321 12.5043 22.0859 12.5043 22.0859C13.9755 19.1606 16.3293 17.1129 19.1245 15.504C21.037 14.4801 22.9495 13.6025 25.1562 12.8712C26.4802 12.5787 27.8043 12.5787 29.1283 12.725C29.7168 12.8712 30.4523 13.0175 31.1879 13.0175C32.8062 13.0175 33.9831 13.8951 35.16 14.9189C36.1898 15.6502 36.9254 16.5278 37.3667 17.5517C37.8081 18.283 38.1023 19.1606 38.3965 20.0382C39.8677 23.841 38.985 27.7901 37.5138 31.593C35.8956 36.1272 33.3946 40.3688 29.5696 43.5866C29.2754 43.8792 28.9812 44.0254 28.5398 44.1717C25.8918 45.6343 22.9495 47.097 19.7129 47.8283C19.5658 47.9746 19.4187 47.9746 19.1245 48.1208C20.1543 48.7059 21.1841 49.4372 22.0668 50.0223C23.2437 50.8998 24.2735 51.7774 25.4504 52.8013C26.186 53.3863 26.9216 54.2639 27.6572 54.9952C27.8043 54.9952 27.8043 55.1415 27.8043 55.1415C29.5696 57.4817 31.1879 59.8219 32.0706 62.601C32.3648 63.4785 32.6591 64.3561 32.9533 65.2337C33.1004 65.5262 33.1004 65.8188 33.1004 65.965C33.3946 66.8426 33.5417 67.7202 33.836 68.5978C34.2773 70.0604 34.7187 71.5231 35.16 72.8394C35.4542 73.5708 35.7485 74.3021 35.8956 75.0334C36.0427 75.7647 36.1898 76.496 36.1898 77.2273C36.1898 78.2512 36.484 79.1288 37.3667 79.7138C37.661 80.0064 38.2494 80.4452 38.6908 80.7377C39.2792 81.0302 39.7206 81.1765 40.4561 81.0302C40.6033 80.8839 40.8975 80.8839 41.0446 80.8839C42.5157 81.0302 43.5455 80.2989 44.4282 79.275C46.3407 77.0811 47.8119 74.7409 48.9888 72.2544C52.2253 64.9412 55.609 57.628 58.8455 50.3148C58.9926 49.876 59.1397 49.4372 59.4339 48.9984C61.1993 47.9746 62.8176 47.682 62.8176 49.2909ZM18.9774 44.6105C21.037 43.5866 23.0966 42.4165 24.5677 40.6614C26.0389 38.7599 27.3629 36.8585 28.687 34.8108C29.2754 34.0795 29.4225 33.3482 29.5696 32.3243C29.7168 30.1304 30.011 27.7901 30.1581 25.4499C30.3052 25.0111 30.3052 24.5723 30.3052 24.1336C30.7466 22.2321 30.8937 20.477 30.7466 18.7218C30.5994 17.4054 30.1581 16.2353 29.4225 15.2115C28.9812 14.6264 28.3927 14.3339 27.8043 14.6264C27.0687 14.7727 26.3331 14.9189 25.7447 15.2115C24.5677 15.6502 23.3908 16.2353 22.361 16.6741C20.0072 17.6979 18.2418 19.4531 17.0649 21.6471C16.4764 22.8172 16.1822 24.1335 15.7409 25.3037C15.5937 25.5962 15.4466 25.8887 15.4466 26.1812C14.711 27.6439 13.9755 29.2528 13.2399 30.8617C13.0928 31.1542 13.0928 31.4467 13.0928 31.7393C13.2399 34.0795 12.9457 36.4197 12.6514 38.7599C12.5043 40.5151 12.7986 42.124 12.5043 43.8792C12.3572 45.0493 12.6514 46.3657 12.7986 47.5358C13.0928 47.5358 13.0928 47.3895 13.387 47.3895C15.1524 46.3657 17.0649 45.4881 18.9774 44.6105Z" fill="#B68B38"/>
<path d="M69.4377 38.3211C69.2906 38.4674 69.1435 38.6137 68.9964 38.9062C68.8492 39.345 68.7021 39.7838 68.1137 39.93C67.9666 40.5151 67.5252 40.9539 67.231 41.3927C66.9368 42.124 66.4954 42.8553 66.3483 43.8792C65.9069 45.7806 65.4656 47.682 64.8771 49.5835C64.4358 50.8998 64.1416 52.2162 63.8473 53.3863C63.5531 54.7027 62.8175 55.8728 62.5233 57.0429C62.5233 57.1892 62.3762 57.3355 62.3762 57.4817C61.6406 58.5056 61.4935 59.6757 61.6406 60.8458C61.7877 62.1622 61.7877 63.3323 61.9348 64.6487C61.9348 65.0874 62.2291 65.5262 62.5233 65.6725C62.8175 65.965 63.406 66.4038 63.7002 66.6963C64.1416 66.9889 64.5829 67.1351 65.0243 66.9889C66.4954 66.4038 68.1137 66.1113 69.2906 65.0874C69.879 64.6487 70.7617 64.2099 71.3502 63.6248C71.7915 63.3323 72.0858 63.0397 72.38 62.601C73.1156 61.8696 73.704 61.1383 74.2925 60.2607L74.4396 60.1145C74.5867 59.5294 74.881 59.0906 75.3223 58.6518C75.4694 58.5056 75.4694 58.3593 75.4694 58.0668C74.8809 57.7742 74.4396 57.4817 73.8511 57.0429C72.38 56.0191 70.9088 54.849 69.879 53.3863C69.4377 52.8013 68.9964 52.07 68.555 51.4849C67.3781 49.2909 67.231 46.9507 67.8194 44.6105C68.1137 43.1479 68.8492 41.9777 69.2906 40.6614C69.2906 40.5151 69.4377 40.5151 69.4377 40.5151C70.1733 40.2226 70.4675 39.4913 71.3502 39.345C71.6444 39.345 72.0858 39.1987 72.38 39.1987C73.704 39.0525 74.5867 39.6375 75.6165 40.2226C76.9406 40.9539 78.5588 41.5389 79.2944 43.0016C79.8829 44.1717 80.3242 45.1955 80.3242 46.5119C80.4713 47.097 80.4713 47.5358 80.6184 47.9746C80.9127 48.9984 80.9127 50.4611 80.7655 51.4849C80.6184 52.3625 80.03 53.0938 79.8829 53.9714C79.7357 54.5564 79.7357 55.1415 79.5886 55.8728C79.8829 55.8728 80.03 56.0191 80.1771 56.0191C80.7655 56.0191 81.354 55.8728 81.9425 55.8728C85.6203 55.2878 89.004 53.2401 91.652 50.6073C91.7992 50.461 91.9463 50.1685 92.0934 50.0223C92.2405 49.876 92.3876 49.5835 92.5347 49.4372C92.829 49.2909 93.2703 49.2909 93.5645 49.4372C94.0059 49.5835 94.4472 49.7297 94.5943 50.1685C94.153 51.6312 90.328 54.9952 89.004 55.434C87.3857 56.0191 85.9146 57.0429 84.2963 57.628C82.8251 58.213 81.6482 58.6518 80.03 58.3593C79.4415 58.213 78.7059 58.5056 78.1175 58.5056C77.6761 58.6518 77.3819 59.0906 77.2348 59.5294C76.7934 60.407 76.3521 61.2846 76.0579 62.1622C75.4694 63.4785 74.1454 64.2099 73.4098 65.2337C72.8213 65.965 72.2329 66.8426 71.4973 67.2814C70.6146 67.8665 70.0262 68.5978 69.2906 69.0366C68.2608 69.6216 67.231 70.4992 65.9069 70.3529C64.5829 70.2067 63.2589 69.4754 62.082 68.8903C59.7281 67.5739 57.0801 65.5262 55.9031 63.0397C55.3147 61.7234 55.0204 60.2607 54.8733 58.7981C54.7262 57.1892 54.5791 55.5803 54.7262 53.9714C54.8733 52.5087 55.3147 50.8998 55.756 49.4372C56.4916 47.2432 57.3743 45.1955 58.4041 43.2941C58.6983 42.7091 58.9925 42.124 59.581 41.5389C60.1695 40.9539 60.7579 40.2226 61.3464 39.4913C61.9348 38.9062 62.6704 38.4674 63.2589 38.0286C64.2887 37.2973 65.1714 36.7122 66.3483 36.1272C66.6425 35.8347 67.231 35.8347 67.6723 35.8347C68.555 35.9809 69.4377 36.1272 70.1733 36.7122C70.3204 37.2973 69.879 37.8824 69.4377 38.3211ZM77.0877 53.6789C77.0877 53.5326 77.0877 53.3863 77.2348 53.0938C77.9704 52.2162 78.1175 50.7536 77.9704 49.7297C77.8232 48.4134 77.9704 46.6582 77.2348 45.3418C76.7934 44.6105 76.205 43.8792 76.0579 43.0016V42.8553C75.9108 42.7091 75.7636 42.5628 75.6165 42.5628C75.4694 42.5628 75.3223 42.7091 75.1752 42.8553C75.0281 43.1479 75.0281 43.4404 74.881 43.7329C74.4396 44.7568 74.1454 45.7806 73.9983 46.6582C73.9983 46.8045 73.8511 46.9507 73.8511 47.2432C73.2627 48.4134 73.2627 49.4372 73.5569 50.6073C73.8511 51.7774 74.4396 52.8013 75.1752 53.6789C75.6165 54.1176 76.0579 54.7027 76.6463 54.7027C76.7934 54.7027 77.0877 54.2639 77.0877 53.6789Z" fill="#B68B38"/>
<path d="M103.274 61.7234C101.803 60.2607 100.185 58.7981 98.7137 57.3355C97.3897 56.1653 96.0657 54.849 95.0359 53.5326C93.4176 51.6312 91.7993 49.5835 90.4753 47.3895C89.5926 45.6343 89.1513 43.7329 89.0042 41.6852C89.0042 41.1002 89.1513 40.3688 89.2984 39.7838C89.5926 37.5898 90.6224 35.6884 92.0936 34.0795C92.8291 33.2019 93.7118 32.6169 94.7416 32.3243C96.0657 32.0318 97.2426 31.8855 98.4195 32.3243C98.7137 32.4706 99.1551 32.4706 99.4493 32.6169C100.626 32.9094 101.509 33.4944 102.392 34.0795C103.274 34.6645 103.127 35.1033 102.244 35.5421C101.362 35.8347 100.479 36.2735 99.5964 36.4197C99.3022 36.566 99.008 36.7122 98.7137 36.8585C98.1253 37.5898 97.3897 38.1749 97.2426 39.0525C97.0955 39.345 96.9484 39.6375 96.8012 40.0763C96.507 40.8076 96.507 41.539 96.6541 42.4165C96.8012 43.0016 96.9484 43.4404 97.5368 43.8792L97.6839 44.0254C98.1253 45.0493 99.1551 45.7806 99.8906 46.8045C100.185 47.097 100.479 47.3895 100.773 47.682C102.392 49.1447 104.304 50.6073 105.922 52.2162C106.805 53.0938 107.688 54.1176 108.57 55.1415C109.159 55.7266 109.6 56.4579 110.189 57.0429C110.483 57.3355 110.924 57.628 111.218 58.0668C111.807 57.7742 112.248 57.4817 112.543 57.0429C112.837 56.8967 112.984 56.7504 113.131 56.4579C114.014 55.8728 114.602 54.9952 115.338 54.2639C115.926 53.6789 116.515 53.2401 117.103 52.655C118.133 51.7774 119.163 50.8998 119.898 49.7297C120.045 49.4372 120.34 49.2909 120.487 49.1447C120.781 48.8521 121.075 48.8521 121.517 48.9984C121.958 49.1447 122.546 49.2909 122.988 49.2909C123.429 49.4372 123.576 49.876 123.282 50.1685C123.135 50.3148 123.135 50.3148 122.988 50.4611C122.693 50.7536 122.841 51.4849 122.105 51.7774C121.664 51.9237 121.222 52.3625 120.781 52.655C120.192 52.9475 119.898 53.6789 119.457 54.1176C119.163 54.4102 119.016 54.7027 118.721 54.849C118.427 55.1415 118.133 55.434 117.839 55.7265C117.544 56.3116 117.25 56.6041 116.809 57.0429C116.515 57.3355 116.073 57.628 115.926 58.0668C115.926 58.213 115.632 58.3593 115.632 58.3593C115.485 58.5056 115.191 58.5056 115.043 58.6518C114.455 59.2369 114.014 59.8219 113.425 60.407C112.984 60.6995 113.131 60.992 113.425 61.4308C113.719 61.7234 113.867 62.1622 114.161 62.4547C114.308 62.7472 114.455 63.0397 114.602 63.186C115.485 64.2099 115.926 65.6725 116.368 66.8426C116.515 67.4277 116.662 68.159 116.515 68.744C116.368 69.3291 116.515 69.9141 116.809 70.4992C118.427 73.8633 117.25 78.8362 116.368 82.2003C115.191 86.0032 112.543 87.7583 109.747 90.2448C107.982 91.8537 104.745 92.1463 102.539 92.1463C99.8906 92 97.9782 90.6836 96.2128 88.7822C96.0657 88.6359 95.9185 88.4897 95.6243 88.3434C95.3301 88.0509 94.8887 87.7583 94.5945 87.3196C94.4474 87.027 94.1532 86.7345 93.8589 86.5882C93.5647 86.2957 93.4176 86.0032 93.2705 85.5644C92.3878 81.0302 94.3003 75.911 97.3897 71.9618C97.831 71.523 98.2724 70.938 98.5666 70.3529C99.1551 69.7679 99.5964 69.1828 100.038 68.5978C101.362 67.2814 102.686 65.965 103.863 64.5024C104.01 64.2099 104.304 64.0636 104.598 63.7711C104.598 63.0397 104.01 62.3084 103.274 61.7234ZM105.04 68.0127C104.598 68.5978 104.157 69.0366 103.716 69.4754C103.421 69.7679 102.833 70.2067 102.539 70.6455C102.392 70.938 102.244 71.0843 101.95 71.2305C100.626 72.1081 99.7435 73.2782 98.8608 74.4483C98.4195 75.0334 97.831 75.4722 97.6839 76.2035V76.3498C97.2426 76.7886 97.0955 77.3736 96.9484 78.1049C96.8012 78.8362 96.6541 79.4213 96.3599 80.1526C96.0657 81.469 96.0657 82.7854 96.2128 84.248C96.3599 85.1256 97.2426 85.7106 98.1253 85.5644C98.4195 85.5644 98.8608 85.4181 99.1551 85.4181C99.4493 85.4181 99.5964 85.2719 99.8906 85.2719C100.92 85.1256 101.95 84.6868 102.833 84.1017C103.716 83.5167 104.598 82.7854 105.628 82.3466C105.922 82.0541 106.511 81.9078 106.805 81.7615C107.541 81.6153 108.129 81.1765 108.57 80.7377C108.865 80.4451 109.012 80.1526 109.159 79.8601C109.6 78.69 109.894 77.3736 109.747 76.0572C109.747 74.1558 109.6 72.2544 109.012 70.3529C108.865 70.0604 108.865 69.9141 108.865 69.6216C108.57 68.4515 107.982 67.4277 107.394 66.5501C107.394 66.4038 107.246 66.4038 107.099 66.4038C106.217 66.6963 105.628 67.4277 105.04 68.0127Z" fill="#B68B38"/>
<path d="M149.027 49.4372C148.88 49.7297 148.88 50.0222 148.733 50.1685C147.997 51.0461 147.409 52.0699 146.967 53.0938C146.82 53.2401 146.82 53.3863 146.82 53.3863C146.82 54.4102 145.938 55.1415 145.79 56.0191C145.202 56.6041 144.908 57.4817 144.466 58.213C141.818 61.5771 140.347 65.6725 136.669 68.3052C133.874 70.3529 130.932 73.1319 127.254 72.8394C125.93 72.6932 124.606 72.2544 123.282 71.8156C123.135 71.8156 123.135 71.6693 122.988 71.6693C121.958 70.938 120.928 70.2067 120.045 69.1828C118.868 67.4277 118.28 65.5262 118.28 63.6248C118.133 61.2846 118.133 59.0906 118.427 56.7504C118.574 55.2878 118.721 53.8251 118.868 52.3625C118.868 52.0699 119.016 51.7774 119.016 51.3386C119.31 49.876 119.604 48.4133 119.898 46.9507C120.34 45.0493 121.075 43.2941 121.811 41.5389C121.958 41.2464 122.105 40.9539 122.105 40.8076C122.693 40.2226 122.988 39.6375 123.135 39.0525C123.135 38.9062 123.282 38.9062 123.282 38.7599C123.576 37.4436 124.606 36.4197 125.489 35.5421C125.636 35.3959 125.93 35.2496 126.077 35.1033C127.548 34.2258 129.166 33.6407 130.932 33.3482C131.962 33.2019 132.844 32.9094 133.874 33.0556C134.463 33.0556 134.904 33.2019 135.345 33.2019C135.492 33.2019 135.64 33.3482 135.934 33.3482C141.818 33.4944 139.17 44.1717 136.081 46.5119C135.64 46.8044 135.051 47.097 134.757 47.5358C134.61 47.682 134.463 47.8283 134.315 47.8283C133.874 48.1208 133.433 48.4133 132.844 48.5596C131.815 48.8521 130.785 49.4372 129.755 49.5835C128.137 49.876 128.284 49.7297 127.842 51.0461C127.695 51.4849 127.695 51.9237 127.695 52.2162C127.842 56.7504 125.194 64.0636 127.99 68.0127C128.431 68.5978 129.019 69.0366 129.755 69.3291C130.049 69.6216 130.49 69.4753 130.932 69.4753C131.815 69.1828 132.55 68.8903 133.286 68.3052C134.315 67.5739 135.345 66.8426 136.375 66.1113C136.816 65.8188 137.258 65.38 137.552 64.9412C138.582 63.4785 139.759 62.1622 140.494 60.5533C140.641 60.2607 140.936 59.9682 141.083 59.6757C142.554 57.9205 143.584 56.0191 144.761 54.2639C144.908 53.9714 145.055 53.6788 145.202 53.3863C145.79 51.9237 146.673 50.7536 147.556 49.4372C147.703 49.1447 147.997 48.7059 148.586 48.7059C148.586 48.9984 148.733 49.1447 149.027 49.4372ZM136.522 36.8585C136.522 36.7122 136.375 36.566 136.228 36.4197C135.345 35.5421 134.315 34.9571 132.991 35.1033C131.962 35.2496 131.226 35.6884 130.932 36.7122C130.638 37.7361 130.049 38.6137 129.902 39.7838C129.902 40.0763 129.755 40.3688 129.608 40.6614C129.166 41.6852 129.019 42.7091 128.872 43.7329C128.725 44.6105 128.725 45.1955 128.431 45.9269C128.284 46.5119 128.137 46.9507 128.284 47.3895C129.755 47.2432 131.226 46.8044 132.55 46.2194C133.433 45.7806 134.168 45.1955 134.757 44.4642C135.64 43.4404 136.228 42.2703 136.964 41.1002C137.111 40.9539 137.258 40.6614 137.111 40.3688C136.964 39.93 137.111 39.4913 137.258 39.0525C137.405 38.7599 137.405 38.4674 137.552 38.1749C136.964 38.0286 136.669 37.4436 136.522 36.8585Z" fill="#B68B38"/>
<path d="M174.183 51.0461C174.036 52.5088 173.448 53.9714 172.712 55.2878C171.683 57.4817 170.653 59.8219 169.623 62.1622C168.74 64.0636 167.416 65.8188 166.386 67.5739C164.768 70.6455 163.444 73.717 161.384 76.496C161.09 77.0811 160.649 77.8124 160.208 78.3975C159.325 79.275 158.736 80.1526 157.707 81.0302C156.235 82.3466 154.323 83.2242 152.41 83.5167C151.822 83.663 151.234 83.3704 150.645 83.2242C147.85 81.7615 146.967 79.4213 146.085 76.3498C145.496 74.1558 145.202 72.1081 144.908 69.9141C144.761 68.4515 144.319 66.9889 144.319 65.5262C144.025 61.1383 144.466 56.7504 144.613 52.3625C144.761 48.8521 144.908 45.3418 145.79 41.9777C146.673 38.3211 147.703 34.6646 147.997 31.008C148.291 27.3514 149.91 24.1336 151.086 20.6232C152.116 17.5517 153.293 14.3339 154.617 11.2623C155.794 8.77584 157.118 5.99683 159.472 4.38792C162.856 1.90144 165.945 0.438798 170.211 0.14627C170.8 6.15418e-06 171.241 0.292534 171.977 0.292534C173.007 0.14627 174.036 0.438798 174.625 1.31638C174.772 1.46265 175.066 1.60891 175.213 1.60891C175.36 1.75517 175.508 1.75517 175.655 1.90144C175.802 2.92528 176.684 3.36408 176.979 4.53419C177.126 5.55803 177.714 6.43562 177.861 7.45946C178.45 10.8235 177.714 14.0413 176.537 17.2591C175.508 20.3307 174.478 23.256 172.859 26.1812C172.271 27.2051 171.977 28.5215 171.388 29.5453C170.8 30.8617 169.917 32.0318 169.182 33.2019C168.152 34.9571 166.975 36.566 165.798 38.1749C164.768 39.93 163.297 41.3927 161.679 42.7091C160.796 43.4404 160.208 44.1717 159.325 44.903C158.295 45.7806 157.265 46.6582 156.235 47.5358C155.647 47.9746 154.911 48.4134 154.323 48.8522C153.735 49.1447 153.587 49.5835 153.587 50.1685C153.44 52.2162 153.146 54.2639 152.999 56.3116C152.852 58.0668 152.411 59.9682 152.705 61.5771C153.293 65.38 153.146 69.1828 153.293 73.132C153.44 73.717 153.587 74.3021 153.882 74.8871C154.47 76.2035 155.5 77.2273 156.824 77.9587C156.971 78.1049 157.56 78.1049 157.707 77.8124C158.295 77.2273 159.031 76.7886 159.472 76.0572C160.355 74.5946 161.09 73.132 161.973 71.6693C165.357 65.38 168.446 58.9444 171.535 52.5088C171.83 51.9237 172.124 51.1924 172.418 50.4611C172.712 49.5835 173.742 49.1447 174.331 48.7059C174.478 48.7059 174.478 48.7059 174.625 48.8522C174.331 49.4372 174.331 50.3148 174.183 51.0461ZM154.029 46.6582C154.617 46.2194 155.206 45.7806 155.794 45.3418C158.148 43.5866 160.355 41.539 162.12 39.1987C163.885 36.7122 165.798 34.2258 167.122 31.593C168.005 29.9841 168.887 28.3752 169.623 26.62C170.506 24.7186 171.094 22.6709 171.683 20.7695C171.977 19.7456 172.418 18.7218 172.712 17.6979C172.859 16.6741 173.007 15.504 173.301 14.3339C173.448 13.0175 173.595 11.5549 173.448 10.2385C173.301 9.3609 173.007 8.48331 172.712 7.60573C172.565 6.87441 172.418 6.28935 171.83 5.85056C171.683 5.7043 171.535 5.26551 171.535 4.97298C171.388 4.38792 170.947 4.0954 170.653 3.80287C170.358 3.6566 169.77 3.51034 169.476 3.21781C168.74 2.92528 168.152 3.07155 167.71 3.51034C167.416 3.80287 167.122 4.0954 166.975 4.38792C166.092 5.7043 165.357 6.87441 164.621 8.19078C162.267 11.9936 160.943 16.2353 159.619 20.477C158.736 23.1097 157.854 25.8887 157.412 28.6677C156.824 31.3005 156.53 34.0795 156.235 36.8585C155.941 38.0286 155.941 39.345 155.647 40.5151C155.5 41.539 154.911 42.4165 154.617 43.4404C154.323 44.4642 154.323 45.4881 154.029 46.5119C153.882 46.5119 153.882 46.5119 154.029 46.6582Z" fill="#B68B38"/>
<path d="M200.223 51.0461C200.076 52.5088 199.487 53.9714 198.752 55.2878C197.722 57.4817 196.692 59.8219 195.662 62.1622C194.78 64.0636 193.456 65.8188 192.426 67.5739C190.807 70.6455 189.483 73.717 187.424 76.496C187.13 77.0811 186.688 77.8124 186.247 78.3975C185.364 79.275 184.776 80.1526 183.746 81.0302C182.275 82.3466 180.362 83.2242 178.45 83.5167C177.861 83.663 177.273 83.3704 176.684 83.2242C173.889 81.7615 173.007 79.4213 172.124 76.3498C171.535 74.1558 171.241 72.1081 170.947 69.9141C170.8 68.4515 170.358 66.9889 170.358 65.5262C170.064 61.1383 170.506 56.7504 170.653 52.3625C170.8 48.8521 170.947 45.3418 171.83 41.9777C172.712 38.3211 173.742 34.6646 174.036 31.008C174.331 27.3514 175.949 24.1336 177.126 20.6232C178.156 17.5517 179.332 14.3339 180.657 11.2623C181.833 8.77584 183.157 5.99683 185.511 4.38792C188.895 1.90144 191.984 0.438798 196.251 0.14627C196.839 6.15418e-06 197.28 0.292534 198.016 0.292534C199.046 0.14627 200.076 0.438798 200.664 1.31638C200.811 1.46265 201.105 1.60891 201.253 1.60891C201.4 1.75517 201.547 1.75517 201.694 1.90144C201.841 2.92528 202.724 3.36408 203.018 4.53419C203.165 5.55803 203.754 6.43562 203.901 7.45946C204.489 10.8235 203.754 14.0413 202.577 17.2591C201.547 20.3307 200.517 23.256 198.899 26.1812C198.31 27.2051 198.016 28.5215 197.428 29.5453C196.839 30.8617 195.956 32.0318 195.221 33.2019C194.191 34.9571 193.014 36.566 191.837 38.1749C190.807 39.93 189.336 41.3927 187.718 42.7091C186.835 43.4404 186.247 44.1717 185.364 44.903C184.334 45.7806 183.305 46.6582 182.275 47.5358C181.686 47.9746 180.951 48.4134 180.362 48.8522C179.774 49.1447 179.627 49.5835 179.627 50.1685C179.48 52.2162 179.185 54.2639 179.038 56.3116C178.891 58.0668 178.45 59.9682 178.744 61.5771C179.332 65.38 179.185 69.1828 179.332 73.132C179.48 73.717 179.627 74.3021 179.921 74.8871C180.509 76.2035 181.539 77.2273 182.863 77.9587C183.01 78.1049 183.599 78.1049 183.746 77.8124C184.334 77.2273 185.07 76.7886 185.511 76.0572C186.394 74.5946 187.13 73.132 188.012 71.6693C191.396 65.38 194.485 58.9444 197.575 52.5088C197.869 51.9237 198.163 51.1924 198.457 50.4611C198.752 49.5835 199.781 49.1447 200.37 48.7059C200.517 48.7059 200.517 48.7059 200.664 48.8522C200.37 49.4372 200.37 50.3148 200.223 51.0461ZM180.068 46.6582C180.657 46.2194 181.245 45.7806 181.833 45.3418C184.187 43.5866 186.394 41.539 188.159 39.1987C189.925 36.7122 191.837 34.2258 193.161 31.593C194.044 29.9841 194.927 28.3752 195.662 26.62C196.545 24.7186 197.133 22.6709 197.722 20.7695C198.016 19.7456 198.457 18.7218 198.752 17.6979C198.899 16.6741 199.046 15.504 199.34 14.3339C199.487 13.0175 199.634 11.5549 199.487 10.2385C199.34 9.3609 199.046 8.48331 198.752 7.60573C198.605 6.87441 198.457 6.28935 197.869 5.85056C197.722 5.7043 197.575 5.26551 197.575 4.97298C197.428 4.38792 196.986 4.0954 196.692 3.80287C196.398 3.6566 195.809 3.51034 195.515 3.21781C194.78 2.92528 194.191 3.07155 193.75 3.51034C193.455 3.80287 193.161 4.0954 193.014 4.38792C192.131 5.7043 191.396 6.87441 190.66 8.19078C188.306 11.9936 186.982 16.2353 185.658 20.477C184.776 23.1097 183.893 25.8887 183.452 28.6677C182.863 31.3005 182.569 34.0795 182.275 36.8585C181.981 38.0286 181.981 39.345 181.686 40.5151C181.539 41.539 180.951 42.4165 180.657 43.4404C180.362 44.4642 180.362 45.4881 180.068 46.5119C179.921 46.5119 179.921 46.5119 180.068 46.6582Z" fill="#B68B38"/>
<path d="M209.344 59.6757C208.314 60.6995 206.99 61.5771 205.372 61.5771C204.342 61.7234 203.312 62.1622 202.282 62.1622C200.223 62.3084 198.31 61.8696 196.986 59.9682C196.545 59.3831 196.251 58.6518 196.104 58.0668C195.515 56.0191 195.515 54.1176 195.956 52.0699C196.104 51.1924 196.251 50.3148 196.398 49.4372C196.692 48.5596 196.986 47.682 197.28 46.8044C197.575 45.7806 198.163 44.6105 198.31 43.5866C198.899 41.3927 200.076 39.4913 201.4 37.7361C201.988 37.151 202.429 36.7122 202.871 35.9809C203.606 34.9571 204.636 34.5183 205.813 34.0795C206.549 33.787 207.284 33.4944 208.02 33.2019C209.344 32.7631 210.668 32.9094 211.845 32.6168C212.139 32.6168 212.433 32.6169 212.728 32.4706C213.757 32.1781 214.787 32.3243 215.817 32.4706C216.7 32.6169 217.288 33.2019 217.877 33.9332C218.171 34.5183 218.759 34.9571 218.906 35.6884C219.495 36.7122 219.348 37.5898 218.612 38.3211C218.465 38.4674 218.024 38.6137 217.729 38.6137C217.435 38.7599 217.288 38.4674 217.141 38.1749C216.994 36.7122 215.817 35.8347 214.934 34.8108C214.787 34.6645 214.787 34.6645 214.64 34.5183C213.61 34.2258 212.58 34.0795 211.551 34.372C209.785 34.6645 208.314 35.3959 207.431 36.8585C206.107 39.0525 205.372 41.8315 204.489 44.1717C204.048 45.3418 203.606 46.6582 203.165 47.8283C202.282 50.7536 201.4 53.3863 202.135 56.3116C202.429 58.0668 204.93 59.3831 206.402 58.6518C208.461 57.7742 210.227 54.4102 211.403 52.5087C211.698 51.9237 211.698 51.1924 211.992 50.461C212.139 49.7297 212.286 48.9984 212.58 48.2671C212.875 47.2432 213.316 46.0731 213.61 45.0493C213.904 43.8792 214.493 42.8553 214.64 41.6852C214.934 40.8076 215.376 40.2226 216.111 40.2226C216.7 40.0763 217.288 39.93 217.877 39.93C218.612 39.7838 219.053 40.2226 219.201 40.8076C219.348 40.9539 219.348 41.1002 219.495 41.3927C219.642 42.2703 218.906 43.1479 219.348 44.0254C219.495 44.4642 219.348 44.903 219.348 45.3418C219.348 47.2432 218.612 49.876 218.318 51.7774C218.024 53.9714 218.024 55.434 217.582 57.4817C217.435 58.213 217.288 58.7981 217.141 59.5294C216.994 60.8458 216.847 62.1622 216.552 63.6248C216.405 64.2099 216.405 64.7949 216.405 65.38C216.405 66.1113 215.523 70.2067 218.171 69.0366C218.906 68.744 220.819 66.8426 221.26 66.2575C222.143 64.9412 223.761 62.601 224.497 61.1383C225.968 58.213 228.027 53.3863 229.499 50.461C229.793 50.0223 229.646 49.2909 230.087 49.2909C230.381 49.1447 230.823 49.1447 231.264 49.1447C231.705 49.1447 231.852 49.2909 231.852 49.7297C231.705 50.3148 231.705 50.8998 231.558 51.3386C230.675 52.5087 229.057 56.7504 228.469 58.0668C226.115 63.4785 222.731 71.2305 216.847 73.2782C215.376 73.717 212.728 73.5707 211.551 72.4006C211.256 72.1081 210.962 71.8156 210.668 71.3768C209.491 69.4754 209.344 67.2814 209.491 65.2337C209.638 63.4785 209.785 61.8696 209.932 60.2607C209.932 60.1145 209.932 59.8219 209.932 59.3831C209.785 59.2369 209.491 59.3831 209.344 59.6757Z" fill="#B68B38"/>
<g clip-path="url(#clip0)">
<path d="M124.079 126.24C124.16 126.4 124.242 126.64 124.323 126.8C124.404 126.64 124.485 126.4 124.567 126.24C124.648 126.08 124.729 125.84 124.81 125.68L128.386 119.2C128.467 119.12 128.467 119.04 128.548 119.04C128.63 118.96 128.629 118.96 128.711 118.96C128.792 118.96 128.873 118.96 128.873 118.88C128.955 118.88 129.036 118.88 129.117 118.88H130.823V130.56H128.792V123.04C128.792 122.88 128.792 122.72 128.792 122.56C128.792 122.4 128.792 122.24 128.792 122.08L125.135 128.72C125.054 128.88 124.973 128.96 124.81 129.04C124.648 129.12 124.485 129.2 124.323 129.2H123.998C123.835 129.2 123.673 129.12 123.51 129.04C123.348 128.96 123.267 128.8 123.185 128.72L119.447 122.08C119.447 122.24 119.447 122.4 119.529 122.64C119.529 122.8 119.529 122.96 119.529 123.12V130.64H117.497V118.96H119.204C119.285 118.96 119.366 118.96 119.447 118.96C119.529 118.96 119.61 118.96 119.61 119.04C119.691 119.04 119.691 119.12 119.772 119.12C119.854 119.2 119.854 119.2 119.935 119.28L123.51 125.76C123.917 125.92 123.998 126.08 124.079 126.24Z" fill="#919291"/>
<path d="M146.994 130.64H145.206C145.043 130.64 144.881 130.56 144.718 130.48C144.556 130.4 144.475 130.24 144.475 130.16L143.581 127.76H138.543L137.649 130.16C137.568 130.32 137.487 130.4 137.405 130.48C137.243 130.56 137.08 130.64 136.918 130.64H135.13L139.924 118.96H142.199L146.994 130.64ZM139.193 126.24H143.093L141.631 122.32C141.549 122.16 141.468 121.92 141.387 121.68C141.306 121.44 141.224 121.2 141.143 120.88C141.062 121.12 140.981 121.44 140.899 121.68C140.818 121.92 140.737 122.16 140.656 122.32L139.193 126.24Z" fill="#919291"/>
<path d="M155.769 129.04C156.257 129.04 156.744 128.96 157.069 128.88C157.476 128.8 157.801 128.64 158.126 128.48V126.32H156.582C156.419 126.32 156.338 126.24 156.257 126.24C156.176 126.16 156.094 126.08 156.094 125.92V124.72H160.157V129.44C159.832 129.68 159.507 129.84 159.182 130C158.857 130.16 158.532 130.32 158.126 130.4C157.72 130.48 157.313 130.56 156.907 130.64C156.501 130.72 156.013 130.72 155.526 130.72C154.632 130.72 153.819 130.56 153.088 130.24C152.357 129.92 151.707 129.52 151.138 128.96C150.569 128.4 150.163 127.76 149.838 127.04C149.513 126.32 149.35 125.52 149.35 124.64C149.35 123.76 149.513 122.96 149.838 122.24C150.163 121.52 150.569 120.88 151.138 120.32C151.707 119.76 152.357 119.36 153.169 119.12C153.982 118.8 154.794 118.72 155.769 118.72C156.744 118.72 157.638 118.88 158.37 119.12C159.101 119.44 159.67 119.76 160.239 120.24L159.588 121.2C159.426 121.36 159.263 121.52 159.101 121.52C158.938 121.52 158.857 121.44 158.695 121.36C158.532 121.28 158.37 121.12 158.126 121.04C157.963 120.96 157.72 120.88 157.476 120.8C157.232 120.72 156.988 120.64 156.744 120.64C156.501 120.56 156.176 120.56 155.769 120.56C155.201 120.56 154.632 120.64 154.144 120.88C153.657 121.04 153.25 121.36 152.925 121.68C152.6 122 152.357 122.48 152.113 122.96C151.95 123.44 151.869 124 151.869 124.64C151.869 125.28 151.95 125.92 152.194 126.4C152.357 126.96 152.682 127.36 153.007 127.76C153.332 128.16 153.819 128.4 154.307 128.56C154.713 128.96 155.201 129.04 155.769 129.04Z" fill="#919291"/>
<path d="M175.84 130.72H174.133C173.971 130.72 173.808 130.64 173.646 130.56C173.483 130.48 173.402 130.32 173.402 130.24L172.508 127.84H167.47L166.576 130.24C166.495 130.4 166.414 130.48 166.333 130.56C166.17 130.64 166.008 130.72 165.845 130.72H164.057L168.852 119.04H171.127L175.84 130.72ZM167.958 126.32H171.858L170.395 122.4C170.314 122.24 170.233 122 170.152 121.76C170.07 121.52 169.989 121.28 169.908 120.96C169.827 121.2 169.745 121.52 169.664 121.76C169.583 122 169.502 122.24 169.42 122.4L167.958 126.32Z" fill="#919291"/>
<path d="M188.353 119.04V119.84C188.353 120.08 188.272 120.32 188.109 120.48L181.853 128.96H188.191V130.72H178.927V129.84C178.927 129.76 178.927 129.6 179.009 129.52C179.09 129.44 179.09 129.36 179.171 129.28L185.428 120.8H179.334V119.04H188.353Z" fill="#919291"/>
<path d="M193.776 119.088L193.749 130.768L196.024 130.773L196.052 119.093L193.776 119.088Z" fill="#919291"/>
<path d="M202.004 119.12C202.086 119.12 202.167 119.12 202.167 119.2C202.248 119.2 202.248 119.28 202.329 119.28C202.411 119.36 202.411 119.36 202.492 119.44L208.83 127.28C208.83 127.12 208.83 126.88 208.749 126.72C208.749 126.56 208.749 126.4 208.749 126.24V119.12H210.78V130.8H209.643C209.48 130.8 209.317 130.8 209.236 130.72C209.155 130.64 208.992 130.56 208.911 130.4L202.573 122.64C202.573 122.8 202.573 122.96 202.573 123.12C202.573 123.28 202.573 123.44 202.573 123.6V130.8H200.542V119.12H201.761C201.842 119.12 202.004 119.12 202.004 119.12Z" fill="#919291"/>
<path d="M225 119.12V120.88H219.637V124.08L223.862 124.16V125.76H219.637V129.12H225V130.8H217.362V119.12H225Z" fill="#919291"/>
<path d="M98.3208 117.84C98.3208 118 98.4021 118.08 98.4833 118.24C98.5646 118.32 98.7271 118.4 98.8896 118.4H100.108V131.6H98.8896C98.7271 131.6 98.5646 131.68 98.4833 131.76C98.4021 131.84 98.3208 132 98.3208 132.16V132.96H101.896L101.977 117.04H98.4021L98.3208 117.84Z" fill="#B68B38"/>
<path d="M3.5753 117.84C3.5753 118 3.49404 118.08 3.41278 118.24C3.33153 118.32 3.16901 118.4 3.0065 118.4H1.78765V131.6H3.0065C3.16901 131.6 3.33153 131.68 3.41278 131.76C3.49404 131.84 3.5753 132 3.5753 132.16V132.96H0V117.04H3.5753V117.84Z" fill="#B68B38"/>
<path d="M10.2383 128C10.7258 128.32 11.6196 128.64 12.5135 128.64C13.7323 128.64 14.3824 128 14.3824 127.28C14.3824 126.48 13.8948 126 12.5947 125.52C10.8883 124.96 10.0758 124 10.0758 122.88C10.0758 121.36 11.2946 120.16 13.326 120.16C14.3011 120.16 15.1137 120.4 15.6825 120.72L15.2762 121.92C14.8699 121.68 14.2199 121.36 13.326 121.36C12.2697 121.36 11.7009 121.92 11.7009 122.64C11.7009 123.44 12.2697 123.76 13.4885 124.24C15.1137 124.88 16.0075 125.68 16.0075 127.04C16.0075 128.72 14.7074 129.84 12.4322 129.84C11.3759 129.84 10.4008 129.6 9.75073 129.2L10.2383 128Z" fill="#B68B38"/>
<path d="M26.4898 127.2C26.4898 128.16 26.4898 129.04 26.571 129.76H25.0272L24.9459 128.24C24.4584 128.96 23.4833 130 21.7769 130C20.3143 130 18.5266 129.2 18.5266 125.92V120.4H20.233V125.6C20.233 127.36 20.8018 128.56 22.3457 128.56C23.4833 128.56 24.2958 127.76 24.6209 127.04C24.7021 126.8 24.7834 126.48 24.7834 126.16V120.4H26.4898V127.2Z" fill="#B68B38"/>
<path d="M29.6587 116H31.3651V121.84C31.6089 121.36 32.0964 120.96 32.5839 120.64C33.0715 120.32 33.7215 120.16 34.3716 120.16C35.6717 120.16 37.7031 120.96 37.7031 124.16V129.76H35.9967V124.4C35.9967 122.88 35.4279 121.6 33.8028 121.6C32.6652 121.6 31.7714 122.4 31.4463 123.28C31.3651 123.52 31.3651 123.76 31.3651 124.08V129.76H29.6587V116Z" fill="#B68B38"/>
<path d="M44.935 123.92V125.2H40.0596V123.92H44.935Z" fill="#B68B38"/>
<path d="M47.2102 123.44C47.2102 122.24 47.2102 121.28 47.1289 120.4H48.6728L48.754 122C49.4854 120.88 50.6229 120.16 52.1668 120.16C54.442 120.16 56.2297 122.08 56.2297 124.96C56.2297 128.32 54.117 130 51.9231 130C50.7042 130 49.5666 129.44 48.9978 128.56V133.6H47.2914V123.44H47.2102ZM48.9166 125.92C48.9166 126.16 48.9166 126.4 48.9978 126.64C49.3228 127.84 50.3792 128.64 51.598 128.64C53.4669 128.64 54.5233 127.2 54.5233 125.04C54.5233 123.2 53.5482 121.52 51.6793 121.52C50.4604 121.52 49.4041 122.32 49.0791 123.6C48.9978 123.84 48.9978 124.08 48.9978 124.32V125.92H48.9166Z" fill="#B68B38"/>
<path d="M58.6672 116H60.3736V129.76H58.6672V116Z" fill="#B68B38"/>
<path d="M68.9058 129.76L68.7433 128.56H68.662C68.0932 129.28 67.1181 129.92 65.7368 129.92C63.7866 129.92 62.8115 128.56 62.8115 127.2C62.8115 124.96 64.8429 123.68 68.4995 123.68V123.6C68.4995 122.8 68.2557 121.44 66.3056 121.44C65.4117 121.44 64.5179 121.68 63.7866 122.16L63.3803 121.04C64.1929 120.56 65.3305 120.24 66.5493 120.24C69.4746 120.24 70.2059 122.16 70.2059 124.08V127.6C70.2059 128.4 70.2059 129.2 70.3684 129.84H68.9058V129.76ZM68.662 124.96C66.7931 124.88 64.5992 125.28 64.5992 127.04C64.5992 128.16 65.3305 128.64 66.2243 128.64C67.4432 128.64 68.2557 127.84 68.4995 127.04C68.5808 126.88 68.5808 126.64 68.5808 126.48V124.96H68.662Z" fill="#B68B38"/>
<path d="M73.3748 116H75.0811V121.84C75.3249 121.36 75.8125 120.96 76.3 120.64C76.7875 120.32 77.4376 120.16 78.0876 120.16C79.3877 120.16 81.4192 120.96 81.4192 124.16V129.76H79.7128V124.4C79.7128 122.88 79.144 121.6 77.5188 121.6C76.3813 121.6 75.4874 122.4 75.1624 123.28C75.0811 123.52 75.0811 123.76 75.0811 124.08V129.76H73.3748V116Z" fill="#B68B38"/>
<path d="M84.9947 120.4L87.1074 125.92C87.3511 126.56 87.5949 127.28 87.6762 127.84C87.8387 127.28 88.0824 126.56 88.3262 125.92L90.1951 120.4H91.9828L89.3825 127.12C88.1637 130.32 87.2699 132 86.1323 132.96C85.3197 133.68 84.4259 134 84.0196 134.08L83.6133 132.64C84.0196 132.48 84.5884 132.24 85.1572 131.84C85.6447 131.44 86.2135 130.8 86.6198 129.92C86.7011 129.76 86.7823 129.6 86.7823 129.52C86.7823 129.44 86.7823 129.28 86.7011 129.04L83.207 120.4H84.9947Z" fill="#B68B38"/>
</g>
<defs>
<clipPath id="clip0">
<rect width="225" height="18" fill="white" transform="translate(0 116)"/>
</clipPath>
</defs>
</svg>
