<svg width="25" height="25" viewBox="0 0 25 25" fill="none" xmlns="http://www.w3.org/2000/svg">
<path d="M7.49992 22.5L12.4999 10.8333M7.10641 15.8333C6.31467 14.9487 5.83325 13.7806 5.83325 12.5V11.6667C5.83325 8.44502 8.44492 5.83334 11.6666 5.83334H13.3333C16.5549 5.83334 19.1666 8.44502 19.1666 11.6667V12.5C19.1666 15.2614 16.928 17.5 14.1666 17.5C12.6736 17.5 11.3481 16.5447 10.876 15.1283L10.8333 15M12.4999 24.1667C6.0566 24.1667 0.833252 18.9433 0.833252 12.5C0.833252 6.05669 6.0566 0.833344 12.4999 0.833344C18.9432 0.833344 24.1666 6.05669 24.1666 12.5C24.1666 18.9433 18.9432 24.1667 12.4999 24.1667Z" stroke="black"/>
</svg>
