<svg width="25" height="25" viewBox="0 0 25 25" fill="none" xmlns="http://www.w3.org/2000/svg">
<path d="M24.1306 2.5L24.6295 2.46692C24.6162 2.26635 24.4841 2.09324 24.2941 2.0275C24.1041 1.96176 23.8933 2.01616 23.7589 2.1656L24.1306 2.5ZM22.9665 7.43151C22.9665 7.15536 22.7426 6.93151 22.4665 6.93151C22.1903 6.93151 21.9665 7.15536 21.9665 7.43151H22.9665ZM12.4819 7.56849H11.9819V7.56849L12.4819 7.56849ZM12.4819 9.16667L12.9819 9.16667V9.16667L12.4819 9.16667ZM0.833252 20.8333V20.3333C0.612984 20.3333 0.418663 20.4775 0.354758 20.6883C0.290852 20.8991 0.372419 21.1268 0.555605 21.2492L0.833252 20.8333ZM2.49735 2.5L2.9656 2.32468C2.89583 2.13834 2.72222 2.0111 2.52353 2.00069C2.32483 1.99027 2.13887 2.09865 2.04999 2.27667L2.49735 2.5ZM9.15372 17.5L9.50755 17.8533C9.62991 17.7307 9.68014 17.5536 9.64033 17.385C9.60052 17.2165 9.47632 17.0806 9.31206 17.0257L9.15372 17.5ZM21.1933 4.1223L20.8225 4.45764L21.0026 4.65689L21.2682 4.61666L21.1933 4.1223ZM23.6317 2.53308C23.7187 3.84616 23.6421 4.68663 23.4095 5.34237C23.1806 5.98765 22.7828 6.50436 22.1205 7.13899L22.8124 7.86101C23.5252 7.17796 24.0482 6.53288 24.352 5.67669C24.652 4.83095 24.7199 3.83026 24.6295 2.46692L23.6317 2.53308ZM22.9665 8.64582V7.43151H21.9665V8.64582H22.9665ZM11.9819 7.56849L11.9819 9.16667L12.9819 9.16667L12.9819 7.56849L11.9819 7.56849ZM11.9819 9.16667L11.9819 10L12.9819 10L12.9819 9.16667L11.9819 9.16667ZM17.5426 2C14.4708 2 11.9819 4.49383 11.9819 7.56849H12.9819C12.9819 5.04466 15.0245 3 17.5426 3V2ZM21.9665 8.64582C21.9665 16.0219 15.9965 22 8.63368 22V23C16.5502 23 22.9665 16.5727 22.9665 8.64582H21.9665ZM2.02909 2.67532C2.90528 5.01545 6.21068 9.66667 12.4819 9.66667V8.66667C6.77166 8.66667 3.7535 4.429 2.9656 2.32468L2.02909 2.67532ZM2.04999 2.27667C0.337631 5.70669 0.0931509 8.99028 1.31153 11.7636C2.52818 14.533 5.15973 16.6937 8.99539 17.9743L9.31206 17.0257C5.65929 15.8063 3.29856 13.8003 2.22708 11.3614C1.15733 8.92639 1.32887 5.95998 2.9447 2.72333L2.04999 2.27667ZM8.79989 17.1467C7.75403 18.1942 4.65688 20.3333 0.833252 20.3333V21.3333C4.99728 21.3333 8.33465 19.028 9.50755 17.8533L8.79989 17.1467ZM21.5642 3.78696C20.5726 2.69025 19.1378 2 17.5426 2V3C18.8431 3 20.0122 3.56156 20.8225 4.45764L21.5642 3.78696ZM21.2682 4.61666C22.4565 4.4367 23.6241 3.81055 24.5023 2.8344L23.7589 2.1656C23.0295 2.97635 22.0689 3.48399 21.1185 3.62794L21.2682 4.61666ZM0.555605 21.2492C3.19475 23.0113 5.96119 23 8.63368 23V22C5.92815 22 3.46404 21.9887 1.1109 20.4175L0.555605 21.2492Z" fill="black"/>
</svg>
